<?xml version="1.0" standalone="no"?>
<!DOCTYPE svg PUBLIC "-//W3C//DTD SVG 20010904//EN"
 "http://www.w3.org/TR/2001/REC-SVG-20010904/DTD/svg10.dtd">
<svg version="1.0" xmlns="http://www.w3.org/2000/svg"
 width="680.000000pt" height="161.000000pt" viewBox="0 0 680.000000 161.000000"
 preserveAspectRatio="xMidYMid meet">

<g transform="translate(0.000000,161.000000) scale(0.100000,-0.100000)"
fill="#000000" stroke="none">
<path d="M207 1363 c-4 -3 -7 -41 -7 -84 l0 -78 48 -3 47 -3 3 -322 2 -322
-47 -3 -48 -3 -3 -83 -3 -82 239 0 c262 0 325 8 420 51 175 79 290 312 254
518 -23 136 -80 236 -179 317 -66 54 -142 82 -256 94 -104 11 -460 13 -470 3z
m492 -174 c142 -30 234 -158 232 -323 -1 -122 -59 -230 -153 -281 -49 -27 -62
-30 -175 -33 l-123 -4 0 319 c0 176 3 323 7 326 10 11 157 8 212 -4z"/>
<path d="M4356 1363 c-3 -4 -6 -41 -6 -84 l0 -78 48 -3 47 -3 3 -407 2 -408
81 0 c72 0 81 2 86 20 3 11 7 20 8 20 2 0 26 -11 54 -26 99 -49 247 -27 337
50 52 44 102 140 115 216 18 116 -22 248 -100 323 -95 93 -240 119 -349 64
-38 -19 -54 -23 -57 -14 -3 6 -6 84 -7 172 l-3 160 -127 2 c-69 1 -129 -1
-132 -4z m500 -472 c73 -33 112 -112 100 -200 -20 -149 -191 -210 -301 -107
l-35 33 0 99 c0 118 8 135 84 170 61 29 97 30 152 5z"/>
<path d="M1421 1070 c-223 -47 -327 -356 -190 -563 102 -154 344 -186 507 -66
23 17 42 36 42 43 0 6 -20 32 -45 56 -39 38 -48 43 -63 32 -41 -30 -120 -62
-152 -62 -78 1 -168 72 -173 136 l-2 28 225 1 225 1 -1 80 c0 96 -22 152 -89
223 -72 77 -181 112 -284 91z m124 -154 c33 -14 75 -66 75 -93 0 -10 -34 -13
-135 -13 -151 0 -156 3 -108 61 47 55 105 71 168 45z"/>
<path d="M2132 1069 c-245 -48 -362 -340 -221 -553 115 -173 390 -201 541 -56
28 27 47 53 44 59 -4 6 -33 31 -65 55 l-59 45 -26 -24 c-79 -74 -182 -81 -256
-19 -54 46 -75 113 -58 187 18 79 96 146 171 147 38 0 96 -26 129 -57 l27 -25
60 53 c34 29 61 56 61 60 0 12 -79 78 -117 98 -37 18 -139 42 -172 40 -9 -1
-35 -5 -59 -10z"/>
<path d="M2771 1070 c-92 -19 -172 -88 -220 -190 -23 -48 -26 -68 -26 -160 0
-93 3 -112 27 -162 94 -200 357 -254 546 -110 17 13 32 30 32 36 0 7 -20 32
-45 56 -43 42 -47 44 -68 30 -94 -61 -149 -72 -215 -45 -48 21 -75 47 -98 96
-15 34 -15 42 -4 49 8 5 111 8 229 7 l216 -2 0 80 c-1 67 -5 90 -28 136 -66
135 -205 207 -346 179z m124 -154 c33 -14 75 -66 75 -93 0 -10 -34 -13 -135
-13 -151 0 -156 3 -108 61 47 55 105 71 168 45z"/>
<path d="M3520 1067 c-25 -7 -57 -20 -70 -30 -32 -22 -40 -21 -40 3 0 18 -7
20 -85 20 l-85 0 0 -340 0 -341 88 3 87 3 3 222 2 221 35 31 c48 42 104 57
153 43 86 -26 104 -84 101 -332 -1 -91 -1 -171 0 -177 1 -9 25 -13 86 -13 l85
0 2 227 3 227 42 32 c57 44 119 53 170 27 67 -34 73 -58 73 -300 l0 -213 91 0
91 0 -4 228 c-5 263 -15 305 -90 379 -121 118 -274 118 -433 -1 -8 -6 -25 1
-51 22 -74 59 -172 82 -254 59z"/>
<path d="M5432 1065 c-151 -42 -235 -168 -236 -350 0 -78 3 -98 28 -152 31
-68 89 -129 155 -162 82 -42 223 -43 316 -2 47 21 105 68 105 84 -1 15 -77 97
-90 97 -5 0 -29 -14 -52 -30 -61 -43 -131 -50 -193 -20 -49 24 -95 80 -95 116
0 30 23 33 248 31 152 -2 196 1 205 11 16 20 -5 145 -34 207 -65 137 -217 209
-357 170z m138 -150 c35 -18 70 -61 70 -86 0 -18 -10 -19 -130 -19 -120 0
-130 1 -130 19 0 26 38 71 74 87 41 18 81 17 116 -1z"/>
<path d="M5987 1062 l-128 -3 3 -77 3 -77 50 -5 50 -5 3 -258 2 -257 85 0 c47
0 85 3 85 8 0 4 1 93 3 199 l2 192 35 37 c40 42 116 81 177 90 l43 6 0 74 0
74 -49 0 c-58 0 -123 -21 -167 -55 -18 -14 -35 -25 -38 -25 -3 0 -6 18 -6 39
0 23 -5 40 -12 42 -7 2 -71 3 -141 1z"/>
<path d="M6434 596 c-30 -30 -34 -40 -34 -84 0 -60 31 -104 86 -122 43 -15 73
-8 113 26 59 49 59 139 0 188 -24 20 -41 26 -81 26 -44 0 -54 -4 -84 -34z"/>
</g>
</svg>
